<svg xmlns="http://www.w3.org/2000/svg" viewBox="380 350 280 380" fill="currentColor">
  <path d="M421.000183,717.338623 C415.001007,717.335632 409.499268,717.436584 404.003204,717.302429 C397.274475,717.138123 393.502991,711.597778 395.805878,705.224426 C396.762421,702.577026 398.057953,700.030396 399.402710,697.548157 C425.430176,649.505249 451.461761,601.464539 477.584778,553.473572 C479.886108,549.245789 480.985321,545.012207 480.948730,540.169495 C480.783661,518.340454 480.865082,496.509369 480.898315,474.679108 C480.901581,472.525970 480.904877,470.307373 481.397156,468.235352 C482.184845,464.919800 484.718536,463.297302 487.989075,463.076141 C491.246002,462.855896 493.796814,464.125610 495.284515,467.242035 C496.341522,469.456238 496.206604,471.778870 496.206085,474.104370 C496.200928,497.601105 496.101746,521.098450 496.257019,544.594055 C496.287994,549.283752 495.127075,553.311707 492.909271,557.384766 C467.576691,603.908630 442.348083,650.489136 417.119965,697.069763 C416.433350,698.337463 415.313507,699.488220 415.485321,701.119080 C419.509857,702.100708 620.929932,702.178406 625.682251,701.188477 C625.908997,698.834778 624.250000,697.199341 623.258057,695.382751 C597.949097,649.034546 572.590454,602.713440 547.228333,556.394287 C545.600159,553.420715 544.625916,550.350830 544.633850,546.887512 C544.691223,521.891113 544.643005,496.894470 544.675842,471.898010 C544.684143,465.595856 548.072388,462.163574 553.291199,463.109650 C557.856262,463.937164 559.414185,466.911407 559.395752,471.397552 C559.301819,494.227295 559.433105,517.058105 559.302734,539.887451 C559.277222,544.364075 560.267273,548.218689 562.444031,552.184753 C589.695068,601.837158 616.806152,651.566589 643.904480,701.302734 C649.250000,711.113831 645.637756,717.153870 634.469421,717.166077 C563.479675,717.243774 492.489899,717.285034 421.000183,717.338623z"/>
  <path d="M453.720306,659.769775 C466.870728,635.969849 479.921143,612.534790 492.739136,588.973206 C494.774872,585.231262 497.225708,583.799133 501.413727,583.863770 C514.409912,584.064270 527.412048,584.019775 540.409790,583.880310 C543.959290,583.842285 546.217407,584.906555 548.004150,588.174377 C565.587219,620.333191 583.319641,652.410339 600.984192,684.524658 C601.602478,685.648682 602.581116,686.718994 602.047974,688.765259 C547.872498,688.765259 493.561066,688.765259 438.219666,688.765259 C442.739502,678.536255 448.721283,669.604126 453.720306,659.769775z"/>
  <path d="M507.607483,384.246155 C521.724548,380.280151 534.747070,384.555511 542.068054,395.279388 C549.420471,406.049316 549.193970,420.098480 541.502869,430.343018 C534.044189,440.277954 521.496643,444.483063 509.476532,441.076111 C497.549164,437.695435 489.561401,427.680969 488.106995,414.284668 C486.920868,403.359100 493.741486,391.172119 504.048370,385.838989 C505.081329,385.304535 506.171021,384.879669 507.607483,384.246155 M532.994324,400.576080 C532.048218,399.641998 531.167053,398.629181 530.145447,397.786591 C523.358887,392.189026 514.358704,391.756958 506.968201,396.628998 C500.221710,401.076385 497.032318,410.289459 499.507812,418.179321 C502.084961,426.393188 509.773529,432.017883 518.350220,431.834961 C525.659180,431.679108 531.189636,428.073700 534.634033,421.922150 C538.530762,414.962708 537.879028,407.845215 532.994324,400.576080z"/>
  <path d="M597.000610,375.545715 C594.222900,386.922913 587.571655,393.435089 577.596558,394.866394 C569.098083,396.085846 559.742493,391.274811 555.444702,383.404785 C551.125732,375.496002 551.512451,367.623230 556.497620,360.268646 C561.768372,352.492676 569.528870,349.462433 578.671692,350.933655 C587.272705,352.317657 593.058411,357.557709 595.876953,365.818909 C596.892151,368.794403 597.693420,371.896698 597.000610,375.545715 M567.776794,382.912354 C572.891113,386.039246 578.064575,385.899933 582.667664,382.248901 C586.341187,379.335205 588.343506,375.284637 587.017639,370.344238 C585.489197,364.649200 581.146057,360.858429 575.830811,360.412048 C571.040283,360.009705 566.090088,362.837158 563.982056,367.179810 C561.221252,372.867249 562.127441,377.214996 567.776794,382.912354z"/>
  <path d="M579.632324,430.237427 C577.770264,435.446289 574.189209,437.763611 569.215210,437.580994 C564.541077,437.409393 561.585754,434.554199 560.204895,430.255707 C558.902039,426.200317 560.292480,422.697235 563.411987,419.998322 C566.755371,417.105774 570.692505,416.763885 574.539795,418.690247 C579.072937,420.959991 580.730713,424.875031 579.632324,430.237427 M568.073303,429.342316 C570.272705,431.280487 571.758179,430.379852 572.502502,427.997955 C572.971069,426.498535 571.968994,425.225006 570.525452,425.071594 C567.806213,424.782654 567.010925,426.327271 568.073303,429.342316z"/>
</svg>
