<svg xmlns="http://www.w3.org/2000/svg" viewBox="440 220 540 540" fill="none">
  <g transform="matrix(2.911466772659159, 0, 0, 2.911466772659159, -2066.286510472803, -1113.0535783708588)">
    <g transform="matrix(1, 0, 0, 1, 23.584909439086914, 0)">
      <g>
        <path d="M994.1,538.9l-72.3-19.4l-34-34l2.6-2.6c1.6-1.6,1.6-4.1,0-5.7l-5.4-5.4c-1.6-1.6-4.1-1.6-5.7,0l-31.7,31.7c-1.6,1.6-1.6,4.1,0,5.7l5.4,5.4c1.6,1.6,4.1,1.6,5.7,0l3.1-3.1l34,34l19.4,72.3c3.3,12.2,18.5,16.3,27.4,7.3l58.9-58.9C1010.3,557.4,1006.3,542.1,994.1,538.9z" fill="none"/>
        <path d="M1003.7,568.6l-58.9,58.9c-5,5-12.1,6.9-19,5.1c-6.9-1.8-12.1-7-13.9-13.9l-19.1-71.4l-31.1-31.1l-0.8,0.8c-2.8,2.8-7.5,2.8-10.3,0l-5.4-5.4c-2.8-2.8-2.8-7.5,0-10.3l31.7-31.7c2.8-2.8,7.5-2.8,10.3,0l5.4,5.4c2.8,2.8,2.8,7.5,0,10.3l-0.3,0.3l31.1,31.1l71.4,19.1c6.9,1.8,12.1,7,13.9,13.9C1010.7,556.5,1008.8,563.6,1003.7,568.6z M849.9,505.9c-0.3,0.3-0.3,0.8,0,1l5.4,5.4c0.3,0.3,0.8,0.3,1,0l5.4-5.4l37,37l19.6,73.1c1.2,4.6,4.7,8,9.3,9.3c4.6,1.2,9.3,0,12.7-3.4l58.9-58.9c3.4-3.4,4.6-8.1,3.4-12.7c-1.2-4.6-4.7-8-9.3-9.3l-73.1-19.6l-37-37l4.9-4.9c0.3-0.3,0.3-0.8,0-1l-5.4-5.4c-0.3-0.3-0.8-0.3-1,0L849.9,505.9z" fill="currentColor"/>
      </g>
      <path d="M951.3,540.5L951.3,540.5c-1.5,6.1-10.3,13.4-17.4,18.6c-6.3,4.6-12,9.9-17,15.9l0,0l10.6,39.5c0.5,1.8,1.8,2.4,2.6,2.6c0.8,0.2,2.3,0.4,3.6-1l58.9-58.9c1.3-1.3,1.2-2.8,1-3.6c-0.2-0.8-0.8-2.1-2.6-2.6L951.3,540.5z" fill="currentColor"/>
      <circle cx="918.7" cy="551.7" r="6.2" fill="currentColor"/>
      <circle cx="914.9" cy="532.6" r="4.3" fill="currentColor"/>
      <circle cx="890.4" cy="517.8" r="3.9" fill="currentColor"/>
    </g>
  </g>
</svg>
