<svg xmlns="http://www.w3.org/2000/svg" viewBox="250 435 550 150" fill="currentColor">
  <path d="M344.860931,564.754822 C325.889557,589.727844 279.522125,587.061829 264.109772,561.775391 C256.087463,548.613525 254.495712,534.328613 256.321259,519.416077 C258.028107,505.473114 263.072388,493.117767 275.278656,485.169830 C292.587311,473.899536 311.023895,472.796844 329.394775,482.042603 C346.751770,490.778076 354.014282,506.180511 354.326965,525.038452 C354.595032,541.205383 355.006470,538.093567 341.480743,538.236694 C324.486389,538.416565 307.488586,538.255310 290.492371,538.291382 C288.724030,538.295105 286.834869,537.790771 284.825195,539.242798 C286.517151,546.833252 289.832245,553.605225 297.871674,555.809814 C306.014893,558.042847 314.558319,558.860596 320.762512,550.956421 C322.727997,548.452393 324.970642,547.581726 328.057892,547.640747 C335.848999,547.789673 343.644867,547.690063 352.156738,547.690063 C351.699188,554.674683 348.043457,559.434998 344.860931,564.754822 M287.402740,510.950470 C286.661652,512.552856 285.273438,513.957214 285.927612,516.461060 C298.910370,516.461060 311.951233,516.461060 325.478973,516.461060 C322.937836,508.093994 317.933044,503.166260 310.099365,501.754089 C301.101837,500.132111 293.295593,502.449585 287.402740,510.950470z"/>
  <path d="M544.719604,483.144409 C555.638184,490.487762 560.074524,500.921478 560.222412,513.229553 C560.468628,533.709717 560.198547,554.195862 560.399780,574.677063 C560.444275,579.198181 558.721924,580.554626 554.511047,580.283691 C550.530579,580.027588 546.496887,579.944519 542.530884,580.291504 C537.963562,580.691101 535.725098,578.906189 535.168457,574.420654 C534.994873,573.022278 534.886475,571.390991 533.629761,570.308838 C532.366333,569.794189 531.829773,570.824097 531.166382,571.486450 C518.117493,584.516785 495.659760,586.019958 481.316864,574.480469 C470.715393,565.951111 467.862396,554.511536 471.056244,541.697815 C474.239380,528.927307 483.831940,522.651794 495.869324,519.775940 C506.491089,517.238281 517.390503,517.862671 528.193298,518.180176 C531.814697,518.286621 532.863525,517.183167 532.748657,513.713745 C532.510315,506.512573 528.578247,501.705322 520.907288,500.581604 C513.892578,499.554016 507.205566,500.286957 502.421417,506.545319 C501.709259,507.476898 500.937439,508.527405 499.703613,508.597595 C491.301514,509.075348 482.903687,509.204865 474.444916,508.516022 C479.148804,478.553955 516.861938,468.173767 544.719604,483.144409 M530.754211,538.411011 C523.101013,538.390991 515.438293,538.128052 507.797791,538.428894 C501.850189,538.663086 498.066528,542.302063 497.441711,547.424866 C496.919220,551.708740 499.741486,556.577698 504.335968,557.816040 C512.520203,560.022034 520.521423,559.775085 527.365112,553.784851 C531.768433,549.930603 533.517517,543.450012 530.754211,538.411011z"/>
  <path d="M768.506836,520.227722 C778.232605,524.032288 786.429749,529.373535 789.101807,539.586853 C793.943848,558.094727 787.413757,572.923401 767.803223,578.984253 C754.185364,583.192932 740.232910,583.554871 726.457458,579.285156 C713.353943,575.223694 704.920410,566.595093 701.408081,553.160583 C700.399597,549.303284 700.926514,547.524841 705.330994,547.647583 C712.156921,547.837952 718.992188,547.738403 725.822876,547.680725 C728.002075,547.662292 729.626709,548.235046 730.763855,550.282166 C733.280579,554.812927 737.547363,556.519592 742.429565,556.810730 C747.239441,557.097595 752.091675,557.471863 756.764221,555.721802 C759.417480,554.727966 761.507507,553.232910 761.689392,550.098877 C761.889954,546.641785 759.325928,545.549561 756.760193,544.701050 C749.318970,542.240234 741.597351,540.920532 733.949890,539.303589 C729.539124,538.371033 725.228027,537.101624 721.177551,535.093445 C709.557495,529.332275 703.689148,519.818054 704.022095,506.973511 C704.341492,494.648834 710.612000,485.742767 721.950256,480.995209 C738.457214,474.083344 755.086853,474.292633 771.302063,482.010529 C780.569275,486.421356 786.017883,494.178223 788.709778,504.031525 C789.585144,507.235687 788.926941,508.872070 785.438477,508.873718 C778.274536,508.877136 771.110657,508.896790 763.946716,508.881042 C762.023071,508.876831 760.608032,508.097015 759.267090,506.542755 C754.505371,501.023834 741.979065,499.414093 735.752991,503.285156 C734.061707,504.336700 733.033997,505.718689 733.158691,507.774841 C733.313843,510.332031 735.128906,511.570282 737.180420,512.402222 C743.857910,515.110168 750.989746,516.075562 757.960083,517.661072 C761.362366,518.434937 764.750427,519.270874 768.506836,520.227722z"/>
  <path d="M449.011047,478.034668 C454.402313,478.282104 459.392609,477.421661 463.936188,478.694641 C464.819946,480.847595 463.961823,482.182922 463.479645,483.566772 C452.908539,513.904724 442.259247,544.215881 431.841278,574.606323 C430.433838,578.711975 428.528931,580.529480 424.037354,580.342102 C416.053711,580.008911 408.046112,580.162781 400.050232,580.255371 C397.155701,580.288818 395.472778,579.273560 394.482971,576.427734 C383.653778,545.291931 372.725677,514.190552 361.875214,483.062164 C361.461517,481.875427 360.728516,480.616974 361.538513,478.727295 C366.625641,477.373627 372.114502,478.065674 377.512939,478.082977 C392.152069,478.129883 389.120789,476.520660 393.280273,489.671844 C399.000946,507.759216 404.627625,525.876282 410.311462,543.975342 C410.903076,545.859192 411.609100,547.707092 412.297729,549.673706 C414.324402,548.899780 414.160187,547.172302 414.562134,545.901245 C420.885223,525.906433 427.122681,505.884552 433.423767,485.882751 C435.891205,478.050262 435.940735,478.065033 444.017578,478.035767 C445.517029,478.030334 447.016510,478.034729 449.011047,478.034668z"/>
  <path d="M608.941040,576.576599 C608.626343,579.595154 606.940979,580.236328 604.686462,580.224609 C598.192871,580.190918 591.698853,580.162354 585.205505,580.204834 C582.478516,580.222717 581.244873,578.892212 581.182617,576.272705 C581.158875,575.274170 581.110291,574.275757 581.109863,573.277283 C581.097290,543.971436 581.078308,514.665588 581.089050,485.359772 C581.091675,478.262573 581.268860,478.121002 588.373291,478.069214 C591.869751,478.043732 595.385437,478.294861 598.858643,478.009521 C603.350098,477.640564 605.724304,479.441925 606.355347,483.884338 C606.558044,485.311249 607.260864,486.667114 607.944641,488.670013 C610.265625,486.720734 612.108459,484.871887 614.233093,483.441559 C622.763306,477.698883 632.442627,477.778717 642.149353,478.271729 C644.443054,478.388214 645.139526,480.097107 645.139282,482.142365 C645.138489,488.469299 645.103577,494.796234 645.113586,501.123138 C645.118469,504.205688 643.311462,505.035339 640.595886,505.112396 C635.785156,505.248962 630.958008,504.884674 626.182800,506.020691 C616.164551,508.403961 609.516235,515.821167 609.297668,526.171753 C608.946167,542.815430 609.065735,559.468994 608.941040,576.576599z"/>
  <path d="M686.173096,503.000000 C686.174744,526.632568 686.183838,549.765076 686.174805,572.897644 C686.171936,580.230042 686.149780,580.245300 678.609741,580.256470 C673.450806,580.264099 668.290100,580.137695 663.133301,580.233521 C660.073425,580.290283 658.589294,579.293213 658.596741,575.949829 C658.666321,544.829224 658.656372,513.708374 658.595398,482.587738 C658.589722,479.685333 659.665649,478.169312 662.585754,478.152100 C669.074646,478.113861 675.563782,478.093201 682.052795,478.099243 C685.349365,478.102295 686.205750,480.101624 686.173706,483.029144 C686.102600,489.518646 686.165283,496.009644 686.173096,503.000000z"/>
  <path d="M656.790039,450.449127 C659.628784,441.378693 664.173889,437.683228 672.062378,437.649048 C681.243713,437.609283 687.686035,443.939911 687.877808,453.190369 C688.047607,461.382843 681.249939,468.278717 672.766541,468.519806 C663.551636,468.781647 656.901062,462.530487 656.654358,453.358551 C656.632080,452.531097 656.709473,451.700958 656.790039,450.449127z"/>
</svg>
