<svg xmlns="http://www.w3.org/2000/svg" viewBox="220 450 600 180" fill="currentColor">
  <!-- Letter 'e' -->
  <path d="M451.365234,583.263428 C438.836426,599.883545 414.330536,601.010864 399.222992,593.823120 C384.639130,586.884644 379.192963,574.140564 377.811676,559.043213 C377.263031,553.046692 377.831970,547.076904 379.192719,541.196106 C384.225647,519.445129 400.722656,510.719086 419.510101,511.164490 C441.009766,511.674133 455.607788,525.102295 458.456360,545.487183 C459.012207,549.464844 459.342651,553.362610 458.866302,557.401367 C458.413452,561.240784 456.564697,562.313904 452.931610,562.279236 C437.940338,562.136353 422.946991,562.212219 407.954407,562.207764 C406.152069,562.207214 404.349731,562.207703 401.733521,562.207703 C403.033020,568.412720 405.249420,573.213989 410.680328,575.670837 C416.959442,578.511353 423.796722,579.142395 428.962585,574.172791 C432.931458,570.354675 436.879059,569.288391 441.894379,569.665894 C446.779449,570.033630 451.756775,569.166626 456.837494,570.305908 C456.536560,575.519897 453.917114,579.187927 451.365234,583.263428 M434.437775,542.797180 C430.954437,533.944702 424.176300,530.440796 414.067657,532.266907 C407.844025,533.391235 403.068207,538.554871 403.081909,544.581726 C412.980499,544.581726 422.887695,544.598022 432.794434,544.536011 C433.316833,544.532715 433.835083,543.865967 434.437775,542.797180z"/>
  <!-- Letter 'v' -->
  <path d="M519.443848,531.518616 C521.094116,526.212769 522.601196,521.280396 524.177185,516.370117 C524.681946,514.797485 525.161743,512.904236 527.233032,512.876465 C534.320862,512.781311 541.410828,512.840027 548.127747,512.840027 C549.229675,515.190857 548.314392,516.533386 547.838562,517.903931 C539.322937,542.433472 530.727783,566.935791 522.318359,591.501648 C521.103699,595.049988 519.335632,596.561646 515.501526,596.392700 C509.182983,596.114258 502.842102,596.227173 496.513672,596.343140 C493.814606,596.392517 492.218567,595.503540 491.296448,592.835876 C482.539124,567.502258 473.690643,542.200134 464.895447,516.879578 C464.525269,515.813843 464.017639,514.681396 465.042419,512.789978 C471.582581,512.789978 478.522430,512.731079 485.460480,512.817993 C488.371826,512.854370 488.581085,515.463074 489.203735,517.438171 C494.256104,533.464783 499.235138,549.514465 504.278229,565.544067 C504.812653,567.242798 504.971832,569.139648 506.983124,571.136780 C511.191284,557.761108 515.259277,544.830933 519.443848,531.518616z"/>
  <!-- Letter 'a' -->
  <path d="M627.318726,543.101807 C627.319214,558.909180 627.329895,574.231567 627.313782,589.553955 C627.306702,596.275757 627.281921,596.276733 620.796997,596.308655 C619.631165,596.314392 618.465332,596.308533 617.299500,596.307617 C608.512146,596.300659 608.512146,596.300598 605.102966,587.888000 C599.438232,593.874756 592.640076,597.363892 584.529785,597.827881 C570.402039,598.636292 555.370728,592.015442 553.228455,574.508057 C552.081116,565.131165 556.674622,555.160034 565.058411,550.388062 C570.361328,547.369690 576.091736,545.745056 582.211853,545.689575 C588.207031,545.635193 594.207703,545.529480 600.197205,545.719971 C604.275940,545.849670 605.020813,543.812927 604.482422,540.400208 C603.121643,531.774902 589.964355,526.919006 582.929504,533.520508 C577.679504,538.447021 572.310547,538.179504 566.458374,538.025696 C563.287720,537.942505 558.799500,539.755249 557.268250,536.430603 C555.850708,533.352722 558.718445,529.808838 560.608704,526.911072 C568.527100,514.771667 580.395325,510.839050 594.188660,511.186646 C596.509216,511.245117 598.838684,511.563782 601.132935,511.948059 C617.909424,514.758057 627.059814,525.500488 627.318726,543.101807 M600.986267,562.207520 C595.156433,562.240784 589.321411,562.138123 583.498718,562.359009 C580.082458,562.488647 577.287659,564.186829 576.453308,567.683411 C575.604858,571.239380 575.991028,574.678894 579.421021,577.028992 C588.233765,583.067139 602.836487,576.931458 604.457031,566.499146 C604.792297,564.340637 604.794800,562.384766 600.986267,562.207520z"/>
  <!-- Letter 'r' -->
  <path d="M644.628174,532.000488 C644.628601,527.338013 644.944641,523.145264 644.550598,519.020325 C644.050537,513.785095 646.259949,512.027039 651.144714,512.723572 C651.797119,512.816589 652.477051,512.766968 653.140503,512.724609 C659.420288,512.323425 665.919434,511.530457 666.118958,522.003601 C673.753296,512.980957 682.949646,512.446045 692.460083,512.659729 C695.633301,512.731079 697.059143,513.901123 697.002136,517.070068 C696.924316,521.397766 696.893982,525.728882 696.972900,530.056152 C697.034607,533.436157 695.428589,534.878235 692.141418,534.881042 C689.480530,534.883301 686.808533,534.951843 684.160828,535.198792 C673.897461,536.156189 667.429382,543.059448 667.338806,553.351685 C667.228882,565.838501 667.200500,578.328552 667.370972,590.814026 C667.425415,594.803345 666.246948,596.661926 661.995850,596.371277 C658.018127,596.099304 653.994019,596.100830 650.015198,596.361450 C645.899597,596.630920 644.526306,595.083008 644.561523,590.942993 C644.727539,571.463318 644.631165,551.981506 644.628174,532.000488z"/>
  <!-- Letter 'i' -->
  <path d="M720.965881,596.319336 C707.634033,596.307800 707.635132,596.307800 707.634277,583.368164 C707.632812,561.883362 707.745239,540.397461 707.537170,518.914612 C707.491394,514.192505 708.825928,512.209595 713.730469,512.647095 C717.696350,513.000854 721.724304,512.857666 725.713867,512.684875 C729.228943,512.532593 730.340759,514.085876 730.330566,517.447632 C730.255981,542.096619 730.215515,566.746399 730.351196,591.394958 C730.392883,598.973206 724.845947,595.466858 720.965881,596.319336z"/>
  <!-- Letter 'i' dot -->
  <path d="M705.832458,492.053284 C707.693665,483.001923 712.593018,478.748169 719.921326,479.414673 C726.730713,480.033997 731.124939,484.509735 731.639893,491.350922 C732.128845,497.845978 728.015320,503.404907 721.629333,504.879089 C715.478149,506.299011 709.164917,502.896576 706.835022,496.796692 C706.310852,495.424469 706.152954,493.912384 705.832458,492.053284z"/>
  <!-- Letter 's' -->
  <path d="M808.240967,521.812012 C811.337280,525.639221 813.275818,529.638367 814.556946,534.016907 C815.291504,536.527344 814.731018,538.006470 811.997375,538.034851 C805.836182,538.098816 799.673767,538.055481 793.511963,538.030334 C792.055298,538.024414 791.170166,537.068054 790.199402,536.084717 C785.687927,531.514954 777.455688,530.192993 771.733521,532.975342 C770.143066,533.748718 768.803223,534.817688 768.733521,536.644958 C768.651367,538.797668 770.310059,539.849548 772.036133,540.593567 C777.124329,542.786743 782.587952,543.578491 787.958618,544.690308 C792.695801,545.671021 797.406128,546.720154 801.798157,548.821533 C811.308533,553.371704 816.224304,560.981750 816.128357,571.481567 C816.032654,581.950500 811.244690,589.852661 801.444275,593.834961 C787.824463,599.369263 773.912415,599.607605 760.035095,594.507141 C750.089722,590.851868 741.504211,578.364868 742.979553,569.850647 C749.940613,569.850647 757.039429,569.835327 764.138123,569.864319 C765.459595,569.869751 766.212524,570.861389 766.824036,571.863342 C771.129456,578.918274 782.840576,578.276245 788.766235,575.874329 C790.640198,575.114746 792.445557,573.807434 792.305115,571.504639 C792.168701,569.268677 790.407898,568.114685 788.416321,567.404114 C782.751343,565.382935 776.817688,564.496155 770.968384,563.241150 C762.880432,561.505920 755.180908,558.975525 749.825317,552.045532 C741.445679,541.202271 743.835938,525.443909 755.010925,517.585571 C768.594299,508.033752 796.387085,508.718567 808.240967,521.812012z"/>
  <!-- Lambda symbol top -->
  <path d="M265.253296,550.707214 C253.266327,572.879761 241.448654,594.679688 229.216522,617.244141 C261.628143,617.244141 293.246613,617.244141 325.323792,617.244141 C324.688904,613.631409 322.652588,610.950562 321.109650,608.108093 C310.860229,589.225830 300.545013,570.379211 290.225891,551.534851 C289.159454,549.587402 288.580658,547.588867 288.588898,545.347900 C288.628723,534.518005 288.597412,523.687988 288.603485,512.857971 C288.604919,510.298126 288.559052,507.352905 292.004608,507.254822 C295.617004,507.151978 296.071228,510.121338 296.087524,512.916321 C296.140930,522.079773 296.227631,531.245911 296.060150,540.406555 C295.987579,544.375549 296.880890,547.873291 298.794403,551.346497 C310.688599,572.935852 322.485992,594.578735 334.268463,616.229431 C337.821716,622.758667 336.240906,625.323669 328.671906,625.337097 C294.349335,625.398010 260.026642,625.426270 225.703995,625.444946 C219.195007,625.448486 217.645981,622.285156 221.144470,615.816101 C229.701141,599.993835 237.768097,583.865784 247.133331,568.533447 C256.021515,553.982056 261.163757,539.007446 258.942322,521.830566 C258.477570,518.236877 258.896423,514.510071 259.104034,510.855652 C259.219238,508.827698 260.463348,507.320953 262.563660,507.211212 C264.668182,507.101227 266.252014,508.423981 266.215851,510.504425 C265.985168,523.781494 267.468903,537.095764 265.253296,550.707214z"/>
  <!-- Lambda symbol bottom triangle -->
  <path d="M310.195740,600.843201 C312.163422,604.480530 313.953644,607.796997 316.165619,611.894653 C290.218170,611.894653 265.253418,611.894653 240.303513,611.894653 C239.229919,610.187378 240.454315,608.946960 241.124710,607.731506 C248.597122,594.184265 256.202423,580.709656 263.586975,567.115051 C265.239197,564.073364 267.323639,562.796021 270.728455,562.931458 C275.381042,563.116516 280.051605,563.118225 284.704529,562.939880 C288.154602,562.807617 290.170135,564.248718 291.780975,567.260864 C297.743439,578.410339 303.921356,589.444702 310.195740,600.843201z"/>
  <!-- Top dot -->
  <path d="M289.647583,479.898987 C291.266418,489.275513 286.906036,496.030609 278.473419,497.827698 C271.806641,499.248474 264.519348,494.302216 262.689636,487.114349 C260.845978,479.871704 265.067139,472.601959 272.453644,470.298645 C279.330994,468.154083 286.173370,471.855835 289.647583,479.898987 M268.167236,481.986206 C268.029755,489.354218 272.672882,494.010498 278.501617,492.216339 C282.604584,490.953369 284.951355,488.109894 284.796539,483.712036 C284.644073,479.380981 282.279175,476.367279 278.092621,475.516907 C273.421875,474.568207 270.034607,476.652832 268.167236,481.986206z"/>
  <!-- Small top-right dot -->
  <path d="M295.281372,472.702576 C291.841400,468.574463 291.101685,464.439667 293.807129,460.056091 C296.107330,456.329132 299.599731,454.581635 303.913879,455.051117 C308.482697,455.548279 311.483978,458.281372 312.803925,462.646729 C314.229340,467.360962 312.519531,471.145874 308.730072,473.985565 C304.609283,477.073517 300.842865,476.706604 295.281372,472.702576 M307.761993,467.079254 C308.240356,464.373199 307.628052,462.049927 305.023743,460.782654 C303.120911,459.856720 301.100037,459.963440 299.468811,461.500183 C297.069366,463.760681 296.640106,466.340271 298.810547,468.980621 C301.079529,471.740906 304.298370,471.264435 307.761993,467.079254z"/>
  <!-- Tiny dot -->
  <path d="M301.671112,486.126343 C304.688721,487.441040 305.678955,489.519318 305.064606,492.270569 C304.571747,494.477905 302.889893,495.528778 300.767029,495.711945 C298.792908,495.882233 297.274109,494.907379 296.311981,493.194397 C294.408508,489.805420 296.427826,486.908813 301.671112,486.126343z"/>
</svg>
